HIERARCHY
ROOT Hips
{
	OFFSET 0.000000 0.000000 0.000000
	CHANNELS 6 Xposition Yposition Zposition Xrotation Yrotation Zrotation
	JOINT LeftUpLeg_virtual
	{
		OFFSET 0.000000 0.000000 0.000000
		CHANNELS 3 Xrotation Yrotation Zrotation
		JOINT LeftUpLeg
		{
			OFFSET 11.394100 -6.187798 -0.413800
			CHANNELS 3 Xrotation Yrotation Zrotation
			JOINT LeftLeg
			{
				OFFSET 0.430247 -32.302673 3.732800
				CHANNELS 3 Xrotation Yrotation Zrotation
				JOINT LeftFoot
				{
					OFFSET -0.430247 -48.264931 -6.423300
					CHANNELS 3 Xrotation Yrotation Zrotation
					JOINT LeftToeBase
					{
						OFFSET 4.230900 -16.068199 23.438400
						CHANNELS 3 Xrotation Yrotation Zrotation
						JOINT LeftToe_End
						{
							OFFSET 4.510700 0.695400 19.974600
							CHANNELS 3 Xrotation Yrotation Zrotation
							End Site
							{
								OFFSET 0 0 0
							}
						}
					}
				}
			}
		}
	}
	JOINT RightUpLeg_virtual
	{
		OFFSET 0.000000 0.000000 0.000000
		CHANNELS 3 Xrotation Yrotation Zrotation
		JOINT RightUpLeg
		{
			OFFSET -11.333700 -6.187798 -0.413800
			CHANNELS 3 Xrotation Yrotation Zrotation
			JOINT RightLeg
			{
				OFFSET -0.430392 -32.302628 3.733000
				CHANNELS 3 Xrotation Yrotation Zrotation
				JOINT RightFoot
				{
					OFFSET 0.430392 -48.264973 -6.423500
					CHANNELS 3 Xrotation Yrotation Zrotation
					JOINT RightToeBase
					{
						OFFSET -4.230900 -16.068199 23.438400
						CHANNELS 3 Xrotation Yrotation Zrotation
						JOINT RightToe_End
						{
							OFFSET -4.510700 0.695400 19.974600
							CHANNELS 3 Xrotation Yrotation Zrotation
							End Site
							{
								OFFSET 0 0 0
							}
						}
					}
				}
			}
		}
	}
	JOINT Spine_virtual
	{
		OFFSET 0.000000 0.000000 0.000000
		CHANNELS 3 Xrotation Yrotation Zrotation
		JOINT Spine
		{
			OFFSET -0.002400 12.777504 0.315300
			CHANNELS 3 Xrotation Yrotation Zrotation
			JOINT Spine1
			{
				OFFSET -0.002067 5.816869 0.032633
				CHANNELS 3 Xrotation Yrotation Zrotation
				JOINT Spine1_split
				{
					OFFSET -0.002067 5.816869 0.032633
					CHANNELS 3 Xrotation Yrotation Zrotation
					JOINT Spine2
					{
						OFFSET -0.002067 5.816869 0.032633
						CHANNELS 3 Xrotation Yrotation Zrotation
						JOINT Neck_virtual
						{
							OFFSET 0.000000 0.000000 0.000000
							CHANNELS 3 Xrotation Yrotation Zrotation
							JOINT Neck
							{
								OFFSET -0.003700 21.199493 -0.826900
								CHANNELS 3 Xrotation Yrotation Zrotation
								JOINT Head
								{
									OFFSET 0.000000 20.442200 4.834800
									CHANNELS 3 Xrotation Yrotation Zrotation
									JOINT HeadTop_End
									{
										OFFSET 0.000000 34.668396 4.968400
										CHANNELS 3 Xrotation Yrotation Zrotation
										End Site
										{
											OFFSET 0 0 0
										}
									}
								}
							}
						}
						JOINT LeftShoulder_virtual
						{
							OFFSET 0.000000 0.000000 0.000000
							CHANNELS 3 Xrotation Yrotation Zrotation
							JOINT LeftShoulder
							{
								OFFSET 3.288150 8.794197 -1.372250
								CHANNELS 3 Xrotation Yrotation Zrotation
								JOINT LeftShoulder_split
								{
									OFFSET 3.288150 8.794197 -1.372250
									CHANNELS 3 Xrotation Yrotation Zrotation
									JOINT LeftArm
									{
										OFFSET 11.953299 -2.279007 -0.146200
										CHANNELS 3 Xrotation Yrotation Zrotation
										JOINT LeftForeArm
										{
											OFFSET 18.448900 0.000000 0.000000
											CHANNELS 3 Xrotation Yrotation Zrotation
											JOINT LeftHand
											{
												OFFSET 29.527798 0.000000 0.000000
												CHANNELS 3 Xrotation Yrotation Zrotation
												End Site
												{
													OFFSET 0 0 0
												}
											}
										}
									}
								}
							}
						}
						JOINT RightShoulder_virtual
						{
							OFFSET 0.000000 0.000000 0.000000
							CHANNELS 3 Xrotation Yrotation Zrotation
							JOINT RightShoulder
							{
								OFFSET -3.249400 8.794197 -1.372250
								CHANNELS 3 Xrotation Yrotation Zrotation
								JOINT RightShoulder_split
								{
									OFFSET -3.249400 8.794197 -1.372250
									CHANNELS 3 Xrotation Yrotation Zrotation
									JOINT RightArm
									{
										OFFSET -11.953299 -2.279007 -0.146200
										CHANNELS 3 Xrotation Yrotation Zrotation
										JOINT RightForeArm
										{
											OFFSET -18.448900 0.000000 0.000000
											CHANNELS 3 Xrotation Yrotation Zrotation
											JOINT RightHand
											{
												OFFSET -29.527802 0.000000 0.000000
												CHANNELS 3 Xrotation Yrotation Zrotation
												End Site
												{
													OFFSET 0 0 0
												}
											}
										}
									}
								}
							}
						}
					}
				}
			}
		}
	}
}
MOTION
Frames: 4
Frame Time: 0.03333333
-0.983361 85.103851 0.111538 0.000000 0.000000 0.000000 1.194483 -61.666588 4.873055 -40.172833 7.733991 27.160966 42.584761 -6.447244 -7.010545 -1.841987 -2.932641 -9.030750 0.274579 0.885391 0.572426 0.000000 0.000000 0.000000 -1.551114 -61.084950 3.722957 -39.848505 -5.644034 -28.225846 51.577173 3.997384 -5.624896 -15.709811 1.549545 24.570759 2.379893 0.161946 -0.492846 0.000000 0.000000 0.000000 -0.742771 -61.300511 2.617264 12.264511 2.041682 -2.598204 8.140996 0.749510 -5.639046 0.176290 -0.354249 1.096387 0.000000 0.000000 0.000000 7.988407 0.324206 -4.365928 -21.029775 21.115535 9.731847 3.557121 27.426239 -2.490967 0.000000 0.000000 0.000000 9.692378 0.267343 -4.982772 -5.192031 -16.300967 -1.597712 -1.937380 -3.757957 1.227287 -23.979698 9.287622 -32.727364 4.204901 -42.110555 0.520572 0.000000 0.000000 0.000000 9.128818 0.540691 -5.428353 -5.250001 14.187268 1.459142 2.785058 -2.944936 3.684743 -32.257945 -22.290906 35.254701 165.050387 69.715673 -161.989097 0.000000 0.000000 0.000000 
-1.279731 84.867561 0.323380 0.000000 0.000000 0.000000 0.963803 -61.452646 4.584396 -40.089748 8.147608 27.362177 43.288424 -7.054765 -6.855654 -2.715129 -3.173467 -9.373915 -0.317982 0.775347 1.038105 0.000000 0.000000 0.000000 -1.948497 -61.081938 3.212384 -39.386562 -5.536203 -28.275689 52.496137 4.002684 -5.668286 -16.473863 1.255508 24.147635 3.553387 0.212611 -0.483790 0.000000 0.000000 0.000000 -0.999134 -61.317190 2.443454 12.225878 1.854154 -2.537039 7.859718 0.735707 -5.671039 -0.628894 -1.067485 1.636853 0.000000 0.000000 0.000000 7.718310 0.313497 -4.383758 -21.022083 20.559679 10.045748 3.817712 26.443328 -2.344308 0.000000 0.000000 0.000000 9.419760 0.283031 -4.985940 -5.188764 -16.031473 -1.568230 -0.460244 -5.060513 1.020467 -25.324076 9.264658 -33.804932 5.459758 -41.736957 1.628326 0.000000 0.000000 0.000000 8.722343 0.531841 -5.380950 -5.345359 14.072792 1.371315 4.036446 -2.522754 1.911937 -30.721638 -21.568458 35.183882 167.224874 66.495826 -164.170618 0.000000 0.000000 0.000000 
-1.759678 84.615456 0.511723 0.000000 0.000000 0.000000 0.000374 -61.411631 3.503469 -39.842338 8.282065 27.642264 44.501124 -7.792987 -6.705887 -4.257029 -3.127051 -9.472946 -0.957296 0.717936 1.500846 0.000000 0.000000 0.000000 -2.761712 -61.006478 2.099103 -37.800521 -5.457676 -28.237757 53.279164 4.192131 -5.856818 -17.435190 0.829438 24.375624 3.594872 0.092025 -0.611906 0.000000 0.000000 0.000000 -1.908187 -61.161994 1.493186 12.001985 1.732111 -2.282897 7.467530 0.771711 -5.464799 -0.715217 -1.065182 2.003468 0.000000 0.000000 0.000000 7.259474 0.324005 -4.256327 -20.132717 19.539778 10.289578 3.736193 24.917734 -1.684901 0.000000 0.000000 0.000000 8.929395 0.332091 -4.749232 -5.130854 -14.876698 -1.060836 0.439722 -5.614363 0.508523 -25.275967 9.655795 -33.103970 6.663953 -44.343955 3.225678 0.000000 0.000000 0.000000 8.126415 0.494491 -5.128937 -5.400777 12.731774 0.517597 5.711079 -2.243619 0.776486 -25.290889 -20.029016 35.512462 163.264839 62.785619 -160.623469 0.000000 0.000000 0.000000 
-2.366992 84.499321 0.665775 0.000000 0.000000 0.000000 -1.600918 -61.494563 1.767922 -39.193330 8.065269 27.755017 45.607222 -8.518818 -6.537675 -5.896393 -2.813309 -9.234989 -1.626978 0.726971 1.825140 0.000000 0.000000 0.000000 -3.855650 -60.698730 0.599452 -35.082252 -5.580564 -28.143381 53.294508 4.370296 -6.054222 -18.363015 0.205961 24.931627 2.818799 -0.152355 -0.734360 0.000000 0.000000 0.000000 -3.207850 -60.702808 -0.008806 11.671708 1.677768 -1.935533 7.020241 0.835012 -5.048582 -0.062308 -0.461243 2.179422 0.000000 0.000000 0.000000 6.675669 0.372041 -3.973647 -18.440476 18.188159 10.459781 3.460017 23.205288 -0.778643 0.000000 0.000000 0.000000 8.239538 0.429036 -4.261312 -5.092075 -12.753852 -0.109287 0.775454 -5.531364 0.218935 -23.524336 11.023079 -30.544650 7.660217 -50.062609 5.063457 0.000000 0.000000 0.000000 7.394849 0.438915 -4.687980 -5.515104 10.190903 -0.960139 7.056570 -2.087847 0.026060 -17.496447 -18.167472 36.327071 155.602255 59.808948 -153.832007 0.000000 0.000000 0.000000 
